<?xml version="1.0" encoding="UTF-8" standalone="no"?>
<!-- Created with Inkscape (http://www.inkscape.org/) -->

<svg
   xmlns:dc="http://purl.org/dc/elements/1.1/"
   xmlns:cc="http://creativecommons.org/ns#"
   xmlns:rdf="http://www.w3.org/1999/02/22-rdf-syntax-ns#"
   xmlns:svg="http://www.w3.org/2000/svg"
   xmlns="http://www.w3.org/2000/svg"
   xmlns:sodipodi="http://sodipodi.sourceforge.net/DTD/sodipodi-0.dtd"
   xmlns:inkscape="http://www.inkscape.org/namespaces/inkscape"
   version="1.1"
   id="svg815"
   width="93.536095"
   height="146.65329"
   viewBox="0 0 93.536095 146.65329"
   sodipodi:docname="can-only.svg"
   inkscape:version="0.92.2 (5c3e80d, 2017-08-06)"
   style="enable-background:new">
  <sodipodi:namedview
     pagecolor="#ffffff"
     bordercolor="#666666"
     borderopacity="1"
     objecttolerance="10"
     gridtolerance="10"
     guidetolerance="10"
     inkscape:pageopacity="0"
     inkscape:pageshadow="2"
     inkscape:window-width="1366"
     inkscape:window-height="705"
     id="namedview817"
     showgrid="false"
     inkscape:zoom="1.2316036"
     inkscape:cx="16.26974"
     inkscape:cy="70.143383"
     inkscape:window-x="-8"
     inkscape:window-y="-8"
     inkscape:window-maximized="1"
     inkscape:current-layer="layer10"
     showguides="true"
     inkscape:guide-bbox="true"
     fit-margin-top="0"
     fit-margin-left="0"
     fit-margin-right="0"
     fit-margin-bottom="0" />
  <metadata
     id="metadata821">
    <rdf:RDF>
      <cc:Work
         rdf:about="">
        <dc:format>image/svg+xml</dc:format>
        <dc:type
           rdf:resource="http://purl.org/dc/dcmitype/StillImage" />
        <dc:title />
      </cc:Work>
    </rdf:RDF>
  </metadata>
  <defs
     id="defs819" />
  <g
     style="display:inline"
     inkscape:label="blikjoe"
     id="layer10"
     inkscape:groupmode="layer"
     transform="translate(-1129.0605,-333.98806)">
    <path
       style="opacity:1;vector-effect:none;fill:#ffffff;fill-opacity:1;fill-rule:evenodd;stroke:none;stroke-width:1.83899999;stroke-linecap:butt;stroke-linejoin:round;stroke-miterlimit:4;stroke-dasharray:none;stroke-dashoffset:0;stroke-opacity:1"
       d="m 1136.8113,353.47043 c 0,0 -5.5579,3.98219 -5.0755,21.22462 0.4824,17.24243 -0.3628,104.15732 -0.3628,104.15732 l 88.0019,0.86956 c 0,0 4.992,-97.25768 -3.3329,-109.02745 -8.325,-11.76976 -6.6026,-21.81713 -26.1232,-23.53953 -19.5206,-1.72241 -53.1075,6.31548 -53.1075,6.31548 z"
       id="path4128"
       inkscape:connector-curvature="0"
       sodipodi:nodetypes="cscccsc" />
    <path
       inkscape:connector-curvature="0"
       id="path5747-3"
       d="m 1212.3038,356.06046 0.1282,5.82859 c 0,0 5.2325,8.95348 6.8604,11.6279 1.6279,2.67442 1.5117,10.11628 1.5117,10.11628 0,0 -7.4419,-20.81395 -14.5349,-24.65116 -7.093,-3.83721 6.0346,-2.92161 6.0346,-2.92161 z"
       style="display:inline;opacity:0.50731087;vector-effect:none;fill:#000000;fill-opacity:1;fill-rule:evenodd;stroke:#ffffff;stroke-width:1.83899999;stroke-linecap:butt;stroke-linejoin:round;stroke-miterlimit:4;stroke-dasharray:none;stroke-dashoffset:0;stroke-opacity:1" />
    <path
       inkscape:connector-curvature="0"
       id="path5745-5"
       d="m 1173.9885,351.78493 c 0,0 17.7599,-0.16444 18.0888,3.28887 0.3289,3.45331 1.6444,0.82222 4.9333,2.13777 3.2889,1.31554 14.471,5.91996 15.2933,8.55106 0.8222,2.63109 2.9599,10.85326 2.9599,10.85326 0,0 -2.1377,-16.77323 -10.6888,-22.69319 -8.5511,-5.91997 -24.3523,-15.63831 -24.3523,-15.63831 0,0 -34.6678,1.89566 -36.9851,4.78504 -2.3173,2.88938 -8.7155,11.34661 -7.5644,12.66215 1.1511,1.31554 21.0488,-5.26219 21.0488,-5.26219 z"
       style="display:inline;opacity:0.84492451;vector-effect:none;fill:#000000;fill-opacity:1;fill-rule:evenodd;stroke:#ffffff;stroke-width:1.83899999;stroke-linecap:butt;stroke-linejoin:round;stroke-miterlimit:4;stroke-dasharray:none;stroke-dashoffset:0;stroke-opacity:1"
       sodipodi:nodetypes="cscccscsscc" />
    <path
       sodipodi:nodetypes="cscccccc"
       inkscape:connector-curvature="0"
       id="path5739-9"
       d="m 1140.9203,345.95881 c 0,0 24.6512,-7.90697 40.4652,-3.37209 15.8139,4.53488 15.5814,13.72093 16.3953,13.37209 5.6369,-7.10447 17.5945,12.58016 14.3354,2.44328 l -10.3819,-11.97816 -21.5116,-8.13954 -31.3954,2.44187 z"
       style="display:inline;opacity:0.65260794;vector-effect:none;fill:#000000;fill-opacity:1;fill-rule:evenodd;stroke:#ffffff;stroke-width:1.83899999;stroke-linecap:butt;stroke-linejoin:round;stroke-miterlimit:4;stroke-dasharray:none;stroke-dashoffset:0;stroke-opacity:1" />
    <path
       inkscape:connector-curvature="0"
       id="path5736-3"
       d="m 1139.8738,347.703 c 0.2326,-0.93023 5.5814,-15.5814 34.6512,-12.32558 29.0698,3.25581 37.7788,20.68304 37.7788,20.68304 l 0.1282,5.82859 c 0,0 -6.2791,-16.97675 -30.6977,-20.93024 -24.4186,-3.95348 -41.8605,6.74419 -41.8605,6.74419 z"
       style="display:inline;opacity:0.59286601;vector-effect:none;fill:#000000;fill-opacity:1;fill-rule:evenodd;stroke:#ffffff;stroke-width:1.83899999;stroke-linecap:butt;stroke-linejoin:round;stroke-miterlimit:4;stroke-dasharray:none;stroke-dashoffset:0;stroke-opacity:1" />
    <path
       inkscape:connector-curvature="0"
       id="path5743-9"
       d="m 1135.8377,359.34933 c 0.6577,-0.32889 -2.96,-6.57774 8.7155,-7.72884 11.6754,-1.1511 21.3776,-9.53772 26.6398,-9.20883 5.2622,0.32888 13.6488,4.76886 8.7155,8.05773 -4.9333,3.28886 -15.3733,0.82221 -15.3733,2.3022 0,1.47999 -2.3022,32.06647 -1.6444,44.39973 0.6578,12.33326 -6.8925,74.1293 -8.537,74.45819 -1.6444,0.32888 -12.3332,-7.72885 -12.3332,-7.72885 0,0 15.7724,-41.07616 16.5947,-71.33375 0.8222,-30.2576 2.1377,-39.79532 -1.1512,-39.79532 -3.2888,0 -12.9109,-0.49333 -21.6264,6.57774 z"
       style="display:inline;opacity:0.92616535;vector-effect:none;fill:#000000;fill-opacity:1;fill-rule:evenodd;stroke:#ffffff;stroke-width:1.83899999;stroke-linecap:butt;stroke-linejoin:round;stroke-miterlimit:4;stroke-dasharray:none;stroke-dashoffset:0;stroke-opacity:1"
       sodipodi:nodetypes="csccsscccsc" />
    <path
       inkscape:connector-curvature="0"
       id="path5498"
       style="font-style:normal;font-variant:normal;font-weight:normal;font-stretch:normal;font-size:medium;line-height:125%;font-family:'Loki Cola';-inkscape-font-specification:'Loki Cola';font-variant-ligatures:discretionary-ligatures;font-variant-caps:normal;font-variant-numeric:normal;font-feature-settings:normal;text-align:justify;writing-mode:lr-tb;text-anchor:start;fill:#000000;fill-opacity:1;fill-rule:nonzero;stroke:none;stroke-width:3.3279624;stroke-linecap:butt;stroke-linejoin:round;stroke-miterlimit:4;stroke-dasharray:none;stroke-opacity:1"
       d="m 1179.0407,439.9367 q 1.0048,0.19139 3.0144,1.96177 1.9618,1.77037 2.536,2.87087 0.8612,1.53114 0.8612,3.97139 0,3.25366 -3.0144,3.25366 -0.9091,0 -5.024,-2.10531 -4.1149,-2.10531 -6.5552,-2.10531 h -0.622 l 0.048,0.0478 q -0.8134,0.0957 -0.8134,0.71772 0,0.71771 1.8661,2.53594 1.3397,1.33974 2.5359,2.24885 0.6699,0.52633 5.0719,2.24886 4.402,1.67468 5.1198,1.67468 0.8134,0 1.3875,-1.1962 l 0.3828,5.83745 q -0.2392,0.14355 -0.6698,0.14355 -2.0097,0 -6.938,-2.34456 -4.9283,-2.34455 -7.4164,-2.34455 h -0.5742 l 0.048,0.0478 q -0.8134,0.0957 -0.8134,0.71772 0,1.38759 4.1628,4.54556 2.0096,1.53113 5.7896,2.82303 4.9762,1.72253 6.0288,2.24886 l 0.3828,5.93315 -10.0002,-4.68911 q -0.7177,-0.38278 -2.1053,-1.14835 -1.4355,-0.76557 -2.0575,-0.76557 -0.7655,0 -0.7655,0.43064 0,0.19139 1.3875,1.48328 1.3876,1.24405 1.3876,1.57899 -0.048,0.0478 -0.096,0.19139 l -0.1435,0.0479 q -0.9091,-0.0957 -3.7321,-2.67949 -2.8231,-2.63164 -2.8231,-3.4929 0,-2.15316 3.6843,-2.15316 0.4307,0 0.4307,-0.23924 0,0.0957 -1.5312,-2.34455 -1.579,-2.4881 -1.579,-3.92354 0,-3.25366 3.3015,-3.20581 -0.9569,-1.2919 -2.1531,-2.96658 -1.1484,-1.91392 -1.1484,-3.3972 0,-3.15797 3.2058,-3.15797 2.0575,0 6.1724,2.00961 4.0671,2.00962 4.4499,2.00962 0.2392,0 0.6699,-0.57418 0,-2.48809 -1.7226,-4.64125 -0.5263,-0.66987 -1.7225,-2.05746 z" />
    <path
       inkscape:connector-curvature="0"
       id="path5500"
       style="font-style:normal;font-variant:normal;font-weight:normal;font-stretch:normal;font-size:medium;line-height:125%;font-family:'Loki Cola';-inkscape-font-specification:'Loki Cola';font-variant-ligatures:discretionary-ligatures;font-variant-caps:normal;font-variant-numeric:normal;font-feature-settings:normal;text-align:justify;writing-mode:lr-tb;text-anchor:start;fill:#000000;fill-opacity:1;fill-rule:nonzero;stroke:none;stroke-width:3.3279624;stroke-linecap:butt;stroke-linejoin:round;stroke-miterlimit:4;stroke-dasharray:none;stroke-opacity:1"
       d="m 1213.5857,359.97407 q -2.5838,3.30151 -2.5838,9.33035 0,2.44025 0.5742,3.92354 0.4785,1.1962 2.1053,3.30151 -0.622,0.62202 -2.0096,2.2967 -2.2967,3.15797 -2.2967,8.32555 0,3.87569 2.2967,11.29212 2.3446,7.36859 2.3446,11.24428 0,6.65087 -6.0767,11.81845 -2.2489,1.91392 -7.0337,1.91392 -1.3397,3.73214 -4.4977,7.12935 8.1342,7.46428 8.1342,13.15819 0,2.72734 -1.579,4.25847 -1.6269,1.53114 -4.3542,1.53114 -2.2967,0 -3.8757,-1.1962 -1.7703,-1.33974 -1.7703,-3.54075 0,-1.38759 0.8134,-2.2967 0.8134,-0.95696 2.201,-0.95696 1.7703,0 2.5359,1.38759 0.4306,1.1962 0.8134,2.44024 0.6699,1.57899 1.6269,1.57899 1.1483,0 1.7225,-1.1962 0.4785,-0.95696 0.4785,-2.20101 0,-4.83264 -7.8949,-11.96199 -0.8135,0.52632 -2.4881,1.53113 -1.6747,1.00481 -2.7274,1.00481 -1.9617,0 -3.2058,-2.10531 -1.1005,-1.81823 -1.1005,-3.87569 0,-1.81822 0.9091,-3.68429 -5.646,-4.54556 -11.6749,-10.7658 -8.2777,-8.56479 -8.2777,-12.05769 0,-0.43063 0.5263,-0.43063 0.4307,0 3.6843,1.67468 14.5458,7.46428 29.1395,13.15819 -0.2393,-1.86607 -1.7704,-3.77999 -0.8134,-1.00481 -2.9666,-2.96657 l 1.0527,-1.10051 q 2.4402,2.29671 3.4929,3.77999 1.5789,2.20101 1.866,4.73695 4.2585,0 6.8423,-2.39239 2.7752,-2.53595 2.7752,-7.12935 0,-1.81823 -0.622,-4.25847 -0.5264,-2.10532 -1.1006,-4.21063 -1.3875,-5.50251 -2.1531,-9.13896 -0.2871,-1.57898 -1.0048,-5.69391 -0.622,-3.34936 -0.622,-4.97619 0,-11.14858 7.7513,-18.89995 z m -44.3072,44.49862 q 2.2967,4.16277 8.2777,9.90453 2.5838,2.4881 9.9045,8.70833 1.6747,-2.58379 4.4499,-4.21062 -7.7035,-4.40201 -22.6321,-14.40224 z m 24.0675,15.21566 q -0.5263,3.87568 -0.4784,4.73695 -1.0527,0.95696 -1.7704,1.72252 2.3445,1.96177 4.1149,3.49291 3.3972,-3.5886 4.2585,-6.74657 -2.7274,-1.29189 -6.1246,-3.20581 z m -3.2536,7.55998 q -0.335,0.43063 -0.4785,0.71772 v 0.0957 q -0.5742,1.43544 -0.5742,2.72734 0,1.29189 1.8182,1.29189 0.8135,0 3.1102,-1.53113 -1.579,-1.38759 -3.8757,-3.30151 z" />
    <path
       inkscape:connector-curvature="0"
       id="path5502"
       style="font-style:normal;font-variant:normal;font-weight:normal;font-stretch:normal;font-size:medium;line-height:125%;font-family:'Loki Cola';-inkscape-font-specification:'Loki Cola';font-variant-ligatures:discretionary-ligatures;font-variant-caps:normal;font-variant-numeric:normal;font-feature-settings:normal;text-align:justify;writing-mode:lr-tb;text-anchor:start;fill:#000000;fill-opacity:1;fill-rule:nonzero;stroke:none;stroke-width:3.3279624;stroke-linecap:butt;stroke-linejoin:round;stroke-miterlimit:4;stroke-dasharray:none;stroke-opacity:1"
       d="m 1169.4699,383.43602 q 1.6747,0 3.5886,1.10051 8.0863,4.5934 15.8377,13.49313 1.2919,1.53113 3.8278,4.5934 0.5742,0.66988 3.1101,1.48329 2.3446,0.71772 3.5408,0.76557 l 1.1483,-0.52633 q 0.048,-0.19139 0.048,-0.23924 0,-1.00481 -2.2489,-2.91873 -2.2488,-1.91391 -2.2488,-2.48809 0,-0.23924 0.2392,-0.23924 0.5742,0 3.0623,2.10531 4.9762,4.21062 4.9762,6.12454 0,1.1962 -0.8613,2.00962 -0.9091,0.76556 -2.1053,0.76556 -2.9666,0 -7.4643,-1.67467 -8.2298,-3.06228 -16.1726,-9.09112 -9.9045,-7.51213 -9.9045,-12.72756 0,-2.53595 1.6268,-2.53595 z m 0.9091,1.43544 q -0.957,0.52633 -0.957,0.81342 0,3.20581 9.0433,9.42605 7.6557,5.26328 12.3926,6.98581 -2.6316,-3.97139 -9.426,-10.00023 -7.4643,-6.65087 -11.0529,-7.22505 z" />
    <path
       inkscape:connector-curvature="0"
       id="path5504"
       style="font-style:normal;font-variant:normal;font-weight:normal;font-stretch:normal;font-size:medium;line-height:125%;font-family:'Loki Cola';-inkscape-font-specification:'Loki Cola';font-variant-ligatures:discretionary-ligatures;font-variant-caps:normal;font-variant-numeric:normal;font-feature-settings:normal;text-align:justify;writing-mode:lr-tb;text-anchor:start;fill:#000000;fill-opacity:1;fill-rule:nonzero;stroke:none;stroke-width:3.3279624;stroke-linecap:butt;stroke-linejoin:round;stroke-miterlimit:4;stroke-dasharray:none;stroke-opacity:1"
       d="m 1169.4699,371.47403 q 1.6747,0 3.5886,1.10051 8.0863,4.5934 15.8377,13.49313 1.2919,1.53113 3.8278,4.5934 0.5742,0.66988 3.1101,1.48329 2.3446,0.71772 3.5408,0.76557 l 1.1483,-0.52633 q 0.048,-0.19139 0.048,-0.23924 0,-1.00481 -2.2489,-2.91873 -2.2488,-1.91392 -2.2488,-2.48809 0,-0.23924 0.2392,-0.23924 0.5742,0 3.0623,2.10531 4.9762,4.21062 4.9762,6.12454 0,1.1962 -0.8613,2.00962 -0.9091,0.76556 -2.1053,0.76556 -2.9666,0 -7.4643,-1.67467 -8.2298,-3.06228 -16.1726,-9.09112 -9.9045,-7.51213 -9.9045,-12.72756 0,-2.53595 1.6268,-2.53595 z m 0.9091,1.43544 q -0.957,0.52633 -0.957,0.81342 0,3.20581 9.0433,9.42605 7.6557,5.26328 12.3926,6.98581 -2.6316,-3.97139 -9.426,-10.00023 -7.4643,-6.65087 -11.0529,-7.22505 z" />
    <path
       inkscape:connector-curvature="0"
       id="path5506"
       style="font-style:normal;font-variant:normal;font-weight:normal;font-stretch:normal;font-size:medium;line-height:125%;font-family:'Loki Cola';-inkscape-font-specification:'Loki Cola';font-variant-ligatures:discretionary-ligatures;font-variant-caps:normal;font-variant-numeric:normal;font-feature-settings:normal;text-align:justify;writing-mode:lr-tb;text-anchor:start;fill:#000000;fill-opacity:1;fill-rule:nonzero;stroke:none;stroke-width:3.3279624;stroke-linecap:butt;stroke-linejoin:round;stroke-miterlimit:4;stroke-dasharray:none;stroke-opacity:1"
       d="m 1185.5947,366.63541 q 2.7751,0.71772 7.0336,3.4929 4.6413,3.01443 6.8423,3.82784 l 0.2871,-0.43063 q -0.6221,-1.91392 -2.8231,-3.39721 -2.2488,-1.53113 -2.3924,-1.81822 v -0.19139 q 0.2393,-0.19139 0.5264,-0.19139 1.9617,0 5.4068,3.34936 3.3972,3.34935 3.3972,5.31112 0,1.53114 -0.7656,2.10531 -0.1914,0.14355 -2.1053,0.81342 2.8709,1.62683 2.8709,4.44986 0,1.2919 -1.1005,2.24885 -1.1005,0.95696 -2.3924,0.95696 -3.6365,0 -9.2347,-4.83264 -5.646,-4.8805 -5.646,-8.42125 0,-0.43063 0.5263,-1.33974 0.4785,-0.90911 0.5263,-1.38759 -0.1435,-0.28709 -0.6698,-0.33494 -0.4307,-0.52632 -0.4307,-2.00961 0,-1.43544 0.1436,-2.20101 z m 2.2967,5.45467 q -0.6221,0.14354 -0.6221,0.86126 0,0.66988 0.6221,1.43544 h -0.048 q 1.9618,2.34455 5.1198,4.49771 3.6842,2.4881 6.1723,2.4881 1.0048,0 1.0048,-0.81342 0,-1.1005 -5.4068,-4.5934 -4.8326,-3.11012 -6.8422,-3.87569 z" />
    <path
       inkscape:connector-curvature="0"
       id="path5506-1"
       style="font-style:normal;font-variant:normal;font-weight:normal;font-stretch:normal;font-size:medium;line-height:125%;font-family:'Loki Cola';-inkscape-font-specification:'Loki Cola';font-variant-ligatures:discretionary-ligatures;font-variant-caps:normal;font-variant-numeric:normal;font-feature-settings:normal;text-align:justify;writing-mode:lr-tb;text-anchor:start;display:inline;fill:#000000;fill-opacity:1;fill-rule:nonzero;stroke:none;stroke-width:3.3279624;stroke-linecap:butt;stroke-linejoin:round;stroke-miterlimit:4;stroke-dasharray:none;stroke-opacity:1;enable-background:new"
       d="m 1167.5491,473.19093 q 2.7751,0.71772 7.0336,3.4929 4.6413,3.01443 6.8423,3.82784 l 0.2871,-0.43063 q -0.6221,-1.91392 -2.8231,-3.39721 -2.2488,-1.53113 -2.3924,-1.81822 v -0.19139 q 0.2393,-0.19139 0.5264,-0.19139 1.9617,0 5.4068,3.34936 3.3972,3.34935 3.3972,5.31112 0,1.53114 -0.7656,2.10531 -0.1914,0.14355 -2.1053,0.81342 2.8709,1.62683 2.8709,4.44986 0,1.2919 -1.1005,2.24885 -1.1005,0.95696 -2.3924,0.95696 -3.6365,0 -9.2347,-4.83264 -5.646,-4.8805 -5.646,-8.42125 0,-0.43063 0.5263,-1.33974 0.4785,-0.90911 0.5263,-1.38759 -0.1435,-0.28709 -0.6698,-0.33494 -0.4307,-0.52632 -0.4307,-2.00961 0,-1.43544 0.1436,-2.20101 z m 2.2967,5.45467 q -0.6221,0.14354 -0.6221,0.86126 0,0.66988 0.6221,1.43544 h -0.048 q 1.9618,2.34455 5.1198,4.49771 3.6842,2.4881 6.1723,2.4881 1.0048,0 1.0048,-0.81342 0,-1.1005 -5.4068,-4.5934 -4.8326,-3.11012 -6.8422,-3.87569 z" />
  </g>
</svg>
