<?xml version="1.0" encoding="UTF-8" standalone="no"?>
<!-- Created with Inkscape (http://www.inkscape.org/) -->

<svg
   xmlns:dc="http://purl.org/dc/elements/1.1/"
   xmlns:cc="http://creativecommons.org/ns#"
   xmlns:rdf="http://www.w3.org/1999/02/22-rdf-syntax-ns#"
   xmlns:svg="http://www.w3.org/2000/svg"
   xmlns="http://www.w3.org/2000/svg"
   xmlns:xlink="http://www.w3.org/1999/xlink"
   xmlns:sodipodi="http://sodipodi.sourceforge.net/DTD/sodipodi-0.dtd"
   xmlns:inkscape="http://www.inkscape.org/namespaces/inkscape"
   version="1.1"
   id="svg2"
   width="597.16821"
   height="597.16821"
   viewBox="0 0 597.16821 597.16821"
   sodipodi:docname="oneguy.svg"
   inkscape:version="0.92.2 (5c3e80d, 2017-08-06)">
  <metadata
     id="metadata8">
    <rdf:RDF>
      <cc:Work
         rdf:about="">
        <dc:format>image/svg+xml</dc:format>
        <dc:type
           rdf:resource="http://purl.org/dc/dcmitype/StillImage" />
        <dc:title></dc:title>
      </cc:Work>
    </rdf:RDF>
  </metadata>
  <defs
     id="defs6" />
  <sodipodi:namedview
     pagecolor="#ffffff"
     bordercolor="#666666"
     borderopacity="1"
     objecttolerance="10"
     gridtolerance="10"
     guidetolerance="10"
     inkscape:pageopacity="0"
     inkscape:pageshadow="2"
     inkscape:window-width="1366"
     inkscape:window-height="705"
     id="namedview4"
     showgrid="false"
     inkscape:zoom="0.080229423"
     inkscape:cx="-709.2555"
     inkscape:cy="993.49654"
     inkscape:window-x="-8"
     inkscape:window-y="-8"
     inkscape:window-maximized="1"
     inkscape:current-layer="layer2"
     fit-margin-top="0"
     fit-margin-left="0"
     fit-margin-right="0"
     fit-margin-bottom="0" />
  <g
     inkscape:groupmode="layer"
     id="layer1"
     inkscape:label="bg"
     style="display:none"
     sodipodi:insensitive="true"
     transform="translate(-3320.7239,-3423.6089)">
    <image
       style="display:inline"
       sodipodi:absref="C:\Users\David\Dropbox\Inkscape\betogingchristmas\IMG_20171207_131901.jpg"
       y="0"
       x="0"
       id="image942"
       xlink:href="file:///C:/Users/David/Dropbox/Inkscape/betogingchristmas/IMG_20171207_131901.jpg"
       preserveAspectRatio="none"
       height="4160"
       width="3120" />
  </g>
  <g
     inkscape:groupmode="layer"
     id="layer2"
     inkscape:label="people"
     style="display:inline"
     transform="translate(-3320.7239,-3423.6089)">
    <path
       style="display:inline;opacity:1;vector-effect:none;fill:#1b180f;fill-opacity:1;fill-rule:evenodd;stroke:none;stroke-width:1.83899999;stroke-linecap:butt;stroke-linejoin:round;stroke-miterlimit:4;stroke-dasharray:none;stroke-dashoffset:0;stroke-opacity:1"
       d="m 3919.3751,3842.7787 c 0,0 -48.299,-59.9843 -89.5868,-74.0065 -41.2879,-14.0223 -146.455,-23.3705 -146.455,-23.3705 -6.6998,-12.9211 -215.1401,-32.8059 -212.6714,13.2432 -10.9062,20.2545 0.7791,42.8459 -24.1495,60.7633 -24.9286,17.9174 -29.6027,35.8347 -21.0335,94.2609 8.5692,58.4262 3.1162,79.4597 35.8349,128.5377 32.7186,49.078 207.9972,213.4503 207.9972,213.4503 l 83.3547,-6.2321 146.455,-70.8905 z"
       id="path906-7"
       inkscape:connector-curvature="0"
       sodipodi:nodetypes="cccccsccccc" />
    <path
       style="display:inline;opacity:1;vector-effect:none;fill:#334027;fill-opacity:1;fill-rule:evenodd;stroke:none;stroke-width:1.83899999;stroke-linecap:butt;stroke-linejoin:round;stroke-miterlimit:4;stroke-dasharray:none;stroke-dashoffset:0;stroke-opacity:1"
       d="m 3435.6061,3942.4927 c 0,0 -17.9173,-38.9508 -11.6852,-56.0891 6.2321,-17.1384 31.1607,-38.9508 38.1719,-56.8682 7.0111,-17.9174 39.7298,-52.9731 39.7298,-52.9731 0,0 15.5802,24.1495 22.5914,17.9174 7.0112,-6.2321 45.183,-33.4977 45.183,-33.4977 0,0 -6.2322,33.4977 -3.1161,70.1114 3.1161,36.6138 8.5692,78.6806 9.3482,83.3547 0.779,4.6741 -39.7298,-17.9173 -79.4596,-14.8013 -39.7298,3.1161 -60.7634,42.8459 -60.7634,42.8459 z"
       id="path902-7"
       inkscape:connector-curvature="0" />
    <path
       style="display:inline;opacity:1;vector-effect:none;fill:#4b5454;fill-opacity:1;fill-rule:evenodd;stroke:none;stroke-width:1.83899999;stroke-linecap:butt;stroke-linejoin:round;stroke-miterlimit:4;stroke-dasharray:none;stroke-dashoffset:0;stroke-opacity:1"
       d="m 3469.8829,3748.5177 c 0,0 64.6583,-133.2117 100.4931,-132.4327 35.8347,0.779 46.7409,6.2322 56.0891,0.779 9.3482,-5.4531 10.9063,-7.0111 20.2544,-2.337 9.3482,4.6741 13.2433,6.2321 23.3705,11.6852 10.1272,5.4531 22.5915,0.7791 30.3816,25.7076 7.7902,24.9285 23.3705,25.7075 28.8236,31.9396 5.4531,6.2321 43.6249,43.6249 38.9508,58.4262 -4.6741,14.8013 -3.895,38.9508 -50.636,48.299 -46.741,9.3482 -98.156,-34.2767 -133.2117,-49.078 -35.0557,-14.8013 -94.261,23.3705 -105.1672,28.8236 -10.9062,5.4531 -9.3482,-21.8125 -9.3482,-21.8125 z"
       id="path898-5"
       inkscape:connector-curvature="0" />
    <path
       style="display:inline;opacity:1;vector-effect:none;fill:#342417;fill-opacity:1;fill-rule:evenodd;stroke:none;stroke-width:1.83899999;stroke-linecap:butt;stroke-linejoin:round;stroke-miterlimit:4;stroke-dasharray:none;stroke-dashoffset:0;stroke-opacity:1"
       d="m 3387.6985,3556.1916 c -11.017,31.9491 -15.4237,40.7627 -8.8136,63.8983 6.6102,23.1356 28.6441,17.6271 31.9492,35.2542 3.3051,17.6271 -7.7119,28.6441 -4.4068,44.0678 3.3051,15.4237 9.9153,11.017 9.9153,11.017 0,0 13.2203,33.0508 13.2203,33.0508 0,0 57.2882,-9.9152 60.5933,-15.4237 3.3051,-5.5085 9.9153,-22.0339 29.7458,-40.7627 19.8305,-18.7288 52.8813,-37.4577 42.9661,-53.9831 -9.9153,-16.5254 -175.1696,-77.1186 -175.1696,-77.1186 z"
       id="path894-9"
       inkscape:connector-curvature="0" />
    <path
       style="display:inline;opacity:1;vector-effect:none;fill:#0f0f0e;fill-opacity:1;fill-rule:evenodd;stroke:none;stroke-width:1.83899999;stroke-linecap:butt;stroke-linejoin:round;stroke-miterlimit:4;stroke-dasharray:none;stroke-dashoffset:0;stroke-opacity:1"
       d="m 3370.0714,3551.7848 c 1.1017,19.8305 4.4068,13.2203 17.6271,36.3559 13.2203,23.1356 31.9491,57.2882 44.0678,49.5763 12.1186,-7.7119 14.3221,-46.2712 36.356,-31.9492 22.0339,14.3221 78.2204,48.4746 82.6271,51.7797 4.4068,3.3051 14.3221,-29.7458 33.0509,-30.8474 18.7288,-1.1017 41.8644,-11.017 37.4576,-13.2204 -4.4068,-2.2034 -148.7288,-131.1017 -148.7288,-131.1017 z"
       id="path890-4"
       inkscape:connector-curvature="0" />
    <path
       style="display:inline;opacity:1;vector-effect:none;fill:#0c0c0b;fill-opacity:1;fill-rule:evenodd;stroke:none;stroke-width:1.83899999;stroke-linecap:butt;stroke-linejoin:round;stroke-miterlimit:4;stroke-dasharray:none;stroke-dashoffset:0;stroke-opacity:1"
       d="m 3429.5629,3743.4797 c 14.322,-45.1695 9.9153,-69.4068 14.322,-81.5254 4.4069,-12.1187 7.712,-6.6102 24.2374,18.7288 16.5254,25.339 29.7458,41.8644 17.6271,61.6949 -12.1186,19.8305 7.7119,25.339 -9.9152,39.661 -17.6271,14.3221 -41.8645,-12.1186 -46.2713,-38.5593 z"
       id="path886-7"
       inkscape:connector-curvature="0" />
    <path
       style="display:inline;opacity:1;vector-effect:none;fill:#080808;fill-opacity:1;fill-rule:evenodd;stroke:none;stroke-width:1.83899999;stroke-linecap:butt;stroke-linejoin:round;stroke-miterlimit:4;stroke-dasharray:none;stroke-dashoffset:0;stroke-opacity:1"
       d="m 3355.7493,3565.0051 c -9.9152,-50.6779 -20.9322,-56.1864 13.2204,-78.2203 34.1525,-22.0339 50.6779,-25.339 106.8645,-18.7288 56.1864,6.6102 87.0339,-7.7119 93.6441,37.4576 6.6101,45.1695 51.7796,89.2373 39.661,104.661 -12.1187,15.4238 -131.1017,-22.0339 -146.5255,-48.4745 -15.4237,-26.4407 2.2034,-52.8814 2.2034,-52.8814 0,0 -101.356,80.4237 -109.0679,56.1864 z"
       id="path888-8"
       inkscape:connector-curvature="0" />
    <path
       style="display:inline;opacity:1;vector-effect:none;fill:#6b4d40;fill-opacity:1;fill-rule:evenodd;stroke:none;stroke-width:1.83899999;stroke-linecap:butt;stroke-linejoin:round;stroke-miterlimit:4;stroke-dasharray:none;stroke-dashoffset:0;stroke-opacity:1"
       d="m 3449.3935,3618.9882 c 12.1187,-13.2204 5.5085,-17.6271 19.8305,-9.9153 14.322,7.7119 29.7458,23.1356 31.9492,40.7627 2.2034,17.6272 -19.8305,39.6611 -22.0339,26.4407 -2.2034,-13.2203 12.1186,-11.0169 5.5084,-27.5424 -6.6101,-16.5254 -4.4067,-26.4406 -15.4237,-28.644 -11.0169,-2.2034 -19.8305,-1.1017 -19.8305,-1.1017 z"
       id="path892-9"
       inkscape:connector-curvature="0" />
    <path
       style="display:inline;opacity:1;vector-effect:none;fill:#1c2427;fill-opacity:1;fill-rule:evenodd;stroke:none;stroke-width:1.83899999;stroke-linecap:butt;stroke-linejoin:round;stroke-miterlimit:4;stroke-dasharray:none;stroke-dashoffset:0;stroke-opacity:1"
       d="m 3478.4521,3759.424 c 0,0 7.7902,-17.1384 24.1495,-30.3817 16.3593,-13.2432 45.1829,-22.5914 62.3213,-38.9508 17.1383,-16.3593 48.299,-38.1717 48.299,-38.1717 0,0 -21.0335,16.3593 -32.7187,33.4976 -11.6853,17.1384 12.4642,9.3482 39.7298,10.9063 27.2656,1.558 28.8236,14.8013 53.7521,14.8013 24.9285,0 42.0669,-10.9062 52.1941,3.8951 10.1272,14.8013 -9.3482,10.9062 -49.8571,17.9173 -40.5088,7.0112 -57.6471,-23.3705 -85.6917,-26.4865 -28.0446,-3.1161 -95.819,17.1383 -112.1783,52.9731 z"
       id="path896-6"
       inkscape:connector-curvature="0" />
    <path
       style="display:inline;opacity:1;vector-effect:none;fill:#1b2612;fill-opacity:1;fill-rule:evenodd;stroke:none;stroke-width:1.83899999;stroke-linecap:butt;stroke-linejoin:round;stroke-miterlimit:4;stroke-dasharray:none;stroke-dashoffset:0;stroke-opacity:1"
       d="m 3524.414,3794.4797 c 0,0 6.2322,8.5692 -1.558,26.4865 -7.7902,17.9174 -11.6852,75.5646 -12.4642,72.4485 -0.7791,-3.1161 -11.6853,-44.4039 -3.8951,-64.6583 7.7901,-20.2544 17.9173,-34.2767 17.9173,-34.2767 z"
       id="path900-3"
       inkscape:connector-curvature="0" />
    <path
       style="display:inline;opacity:1;vector-effect:none;fill:#080808;fill-opacity:1;fill-rule:evenodd;stroke:none;stroke-width:1.83899999;stroke-linecap:butt;stroke-linejoin:round;stroke-miterlimit:4;stroke-dasharray:none;stroke-dashoffset:0;stroke-opacity:1"
       d="m 3471.441,3921.4593 c 0,0 18.6963,-15.5803 42.0668,-7.7902 23.3705,7.7902 88.0288,42.8459 100.4931,55.3102 12.4642,12.4642 0.779,-4.6741 -1.5581,-12.4643 -2.337,-7.7902 21.0335,-7.0111 33.4977,10.1272 12.4643,17.1384 45.183,34.2767 25.7076,3.8951 -19.4754,-30.3816 -87.2498,-69.3324 -84.1338,-85.6918 3.1161,-16.3593 67.7744,39.7298 94.261,64.6584 26.4865,24.9285 37.3927,130.0956 53.7521,152.6871 16.3593,22.5914 101.272,82.5757 98.935,60.7632 -2.3371,-21.8124 -39.7298,-186.9638 -63.8793,-235.2628 -24.1495,-48.299 -55.3102,-94.2609 -48.299,-94.2609 7.0111,0 81.7967,112.1783 134.7697,138.6648 52.9731,26.4866 66.9954,-35.8347 4.6741,-94.2609 -62.3212,-58.4262 -118.4104,-113.7363 -93.4819,-105.9462 24.9285,7.7902 137.1068,111.3993 145.676,97.377 8.5692,-14.0223 -21.0334,-56.0891 -52.1941,-68.5534 -31.1606,-12.4642 -88.8078,-37.3928 -91.9238,-42.8459 -3.1161,-5.4531 41.2878,-4.6741 64.6583,13.2433 23.3705,17.9174 99.714,84.1337 99.714,84.1337 l -7.749,389.508 c 0,0 -179.9938,7.7902 -180.7728,3.8951 -0.779,-3.8951 -35.8348,-70.1115 -54.5311,-89.5869 -18.6964,-19.4754 -32.7187,-20.2544 -12.4643,-38.9508 20.2544,-18.6963 25.7075,-49.857 10.1272,-73.2275 -15.5803,-23.3704 -106.7252,-98.935 -135.5488,-102.8301 -28.8236,-3.895 -81.7966,-22.5914 -81.7966,-22.5914 z"
       id="path904-9"
       inkscape:connector-curvature="0" />
  </g>
</svg>
